<?xml version="1.0" encoding="UTF-8" standalone="no"?>
<svg
   width="137.508mm"
   height="137.52499mm"
   viewBox="0 0 137.508 137.52499"
   version="1.1"
   id="svg8"
   inkscape:version="1.1.1 (3bf5ae0d25, 2021-09-20)"
   sodipodi:docname="avatar.svg"
   xmlns:inkscape="http://www.inkscape.org/namespaces/inkscape"
   xmlns:sodipodi="http://sodipodi.sourceforge.net/DTD/sodipodi-0.dtd"
   xmlns="http://www.w3.org/2000/svg"
   xmlns:svg="http://www.w3.org/2000/svg"
   xmlns:rdf="http://www.w3.org/1999/02/22-rdf-syntax-ns#"
   xmlns:cc="http://creativecommons.org/ns#"
   xmlns:dc="http://purl.org/dc/elements/1.1/">
  <defs
     id="defs2">
    <linearGradient
       id="b247946c-c62f-4d08-994a-4c3d64e1e98f"
       x1="349"
       y1="698"
       x2="349"
       gradientUnits="userSpaceOnUse">
      <stop
         offset="0"
         stop-color="gray"
         stop-opacity="0.25"
         id="stop2" />
      <stop
         offset="0.54"
         stop-color="gray"
         stop-opacity="0.12"
         id="stop4" />
      <stop
         offset="1"
         stop-color="gray"
         stop-opacity="0.1"
         id="stop6" />
    </linearGradient>
    <linearGradient
       gradientUnits="userSpaceOnUse"
       x2="349"
       y1="698"
       x1="349"
       id="b247946c-c62f-4d08-994a-4c3d64e1e98f-0">
      <stop
         id="stop2-3"
         stop-opacity="0.25"
         stop-color="gray"
         offset="0" />
      <stop
         id="stop4-3"
         stop-opacity="0.12"
         stop-color="gray"
         offset="0.54" />
      <stop
         id="stop6-0"
         stop-opacity="0.1"
         stop-color="gray"
         offset="1" />
    </linearGradient>
  </defs>
  <sodipodi:namedview
     id="base"
     pagecolor="#504747"
     bordercolor="#666666"
     borderopacity="1.0"
     inkscape:pageopacity="0"
     inkscape:pageshadow="2"
     inkscape:zoom="0.98994949"
     inkscape:cx="357.08893"
     inkscape:cy="318.19805"
     inkscape:document-units="mm"
     inkscape:current-layer="layer1"
     inkscape:document-rotation="0"
     showgrid="false"
     inkscape:window-width="3440"
     inkscape:window-height="1411"
     inkscape:window-x="-9"
     inkscape:window-y="-9"
     inkscape:window-maximized="1"
     inkscape:pagecheckerboard="1" />
  <metadata
     id="metadata5">
    <rdf:RDF>
      <cc:Work
         rdf:about="">
        <dc:format>image/svg+xml</dc:format>
        <dc:type
           rdf:resource="http://purl.org/dc/dcmitype/StillImage" />
      </cc:Work>
    </rdf:RDF>
  </metadata>
  <g
     inkscape:label="Layer 1"
     inkscape:groupmode="layer"
     id="layer1"
     style="opacity:1">
    <circle
       style="stroke-width:0.264583"
       cx="68.753769"
       cy="68.753769"
       r="68.753769"
       fill="#f5f5f5"
       id="circle17-5-4" />
    <path
       id="circle2764"
       style="fill:#cccccc;stroke-width:0.999999;stroke:none"
       d="M 463.17188 421.55078 A 214.35635 214.35635 0 0 0 462.18359 418.5918 A 214.35635 214.35635 0 0 0 460.11914 412.94531 A 214.35635 214.35635 0 0 0 457.89648 407.35938 A 214.35635 214.35635 0 0 0 455.51758 401.83789 A 214.35635 214.35635 0 0 0 452.98438 396.38477 A 214.35635 214.35635 0 0 0 450.30078 391.00391 A 214.35635 214.35635 0 0 0 447.4668 385.70117 A 214.35635 214.35635 0 0 0 444.48438 380.48047 A 214.35635 214.35635 0 0 0 441.35742 375.3457 A 214.35635 214.35635 0 0 0 438.08789 370.29883 A 214.35635 214.35635 0 0 0 434.67773 365.34766 A 214.35635 214.35635 0 0 0 431.12891 360.49414 A 214.35635 214.35635 0 0 0 427.44727 355.74023 A 214.35635 214.35635 0 0 0 423.63281 351.09375 A 214.35635 214.35635 0 0 0 419.68945 346.55469 A 214.35635 214.35635 0 0 0 415.62109 342.12695 A 214.35635 214.35635 0 0 0 411.42969 337.81641 A 214.35635 214.35635 0 0 0 407.11914 333.625 A 214.35635 214.35635 0 0 0 402.69336 329.55664 A 214.35635 214.35635 0 0 0 398.1543 325.61328 A 214.35635 214.35635 0 0 0 393.50586 321.79883 A 214.35635 214.35635 0 0 0 388.75195 318.11719 A 214.35635 214.35635 0 0 0 383.89844 314.56836 A 214.35635 214.35635 0 0 0 378.94727 311.1582 A 214.35635 214.35635 0 0 0 373.90039 307.88867 A 214.35635 214.35635 0 0 0 368.76562 304.76172 A 214.35635 214.35635 0 0 0 363.54492 301.7793 A 214.35635 214.35635 0 0 0 358.24219 298.94531 A 214.35635 214.35635 0 0 0 352.86328 296.26172 A 214.35635 214.35635 0 0 0 347.41016 293.72852 A 214.35635 214.35635 0 0 0 341.88672 291.34961 A 214.35635 214.35635 0 0 0 336.30078 289.12695 A 214.35635 214.35635 0 0 0 330.6543 287.0625 A 214.35635 214.35635 0 0 0 324.95117 285.15625 A 214.35635 214.35635 0 0 0 319.19727 283.41016 A 214.35635 214.35635 0 0 0 313.39844 281.82812 A 214.35635 214.35635 0 0 0 307.55469 280.4082 A 214.35635 214.35635 0 0 0 301.67578 279.15234 A 214.35635 214.35635 0 0 0 295.76367 278.0625 A 214.35635 214.35635 0 0 0 289.82227 277.13867 A 214.35635 214.35635 0 0 0 283.85742 276.38086 A 214.35635 214.35635 0 0 0 277.87305 275.79102 A 214.35635 214.35635 0 0 0 271.875 275.37109 A 214.35635 214.35635 0 0 0 265.86914 275.11719 A 214.35635 214.35635 0 0 0 259.85742 275.0332 A 214.35635 214.35635 0 0 0 242.15625 275.76562 A 214.35635 214.35635 0 0 0 224.57422 277.95703 A 214.35635 214.35635 0 0 0 207.23633 281.5918 A 214.35635 214.35635 0 0 0 190.25586 286.64844 A 214.35635 214.35635 0 0 0 173.75 293.08789 A 214.35635 214.35635 0 0 0 157.83398 300.86914 A 214.35635 214.35635 0 0 0 142.61523 309.9375 A 214.35635 214.35635 0 0 0 128.19727 320.23242 A 214.35635 214.35635 0 0 0 114.67773 331.68359 A 214.35635 214.35635 0 0 0 102.15039 344.21094 A 214.35635 214.35635 0 0 0 90.699219 357.72852 A 214.35635 214.35635 0 0 0 80.404297 372.14844 A 214.35635 214.35635 0 0 0 71.335938 387.36719 A 214.35635 214.35635 0 0 0 63.554688 403.2832 A 214.35635 214.35635 0 0 0 57.115234 419.78906 A 214.35635 214.35635 0 0 0 56.576172 421.59961 A 259.85676 259.85676 0 0 0 259.85742 519.71289 A 259.85676 259.85676 0 0 0 463.17188 421.55078 z "
       transform="scale(0.26458333)" />
    <circle
       style="fill:#cccccc;fill-opacity:1;stroke:none;stroke-width:0.014;stroke-linecap:round;stroke-linejoin:round;stroke-miterlimit:4;stroke-dasharray:none;paint-order:stroke markers fill"
       id="path1729"
       cx="67.791473"
       cy="45.73185"
       r="34.393833" />
  </g>
  <g
     inkscape:groupmode="layer"
     id="layer2"
     inkscape:label="Layer 2" />
</svg>
